<svg width="61" height="14" viewBox="0 0 61 14" fill="none" xmlns="http://www.w3.org/2000/svg">
<path d="M4.8547 13.6948H0V0H4.89482C6.27232 0 7.45813 0.274163 8.45225 0.82249C9.44637 1.36636 10.2109 2.14873 10.7459 3.16959C11.2853 4.19046 11.555 5.41194 11.555 6.83402C11.555 8.26056 11.2853 9.48649 10.7459 10.5118C10.2109 11.5371 9.44192 12.324 8.43888 12.8723C7.4403 13.4206 6.24557 13.6948 4.8547 13.6948ZM2.89543 11.2139H4.73433C5.59026 11.2139 6.31021 11.0624 6.8942 10.7592C7.48265 10.4516 7.92399 9.97687 8.21821 9.33492C8.51689 8.68852 8.66623 7.85489 8.66623 6.83402C8.66623 5.82207 8.51689 4.99512 8.21821 4.35318C7.92399 3.71123 7.48488 3.23869 6.90089 2.93555C6.3169 2.63241 5.59694 2.48084 4.74102 2.48084H2.89543V11.2139Z" fill="#2F241F"/>
<path d="M17.5739 13.8954C16.5174 13.8954 15.608 13.6814 14.8457 13.2535C14.0878 12.821 13.5038 12.2103 13.0937 11.4212C12.6836 10.6277 12.4785 9.68933 12.4785 8.60605C12.4785 7.54952 12.6836 6.62227 13.0937 5.8243C13.5038 5.02633 14.0811 4.40444 14.8256 3.95865C15.5745 3.51286 16.4528 3.28996 17.4603 3.28996C18.1379 3.28996 18.7687 3.39918 19.3526 3.61762C19.9411 3.8316 20.4538 4.1548 20.8906 4.58722C21.332 5.01964 21.6752 5.56351 21.9204 6.21882C22.1656 6.86968 22.2882 7.63199 22.2882 8.50575V9.28812H13.6153V7.52277H19.6068C19.6068 7.11264 19.5176 6.74932 19.3393 6.43281C19.161 6.11629 18.9135 5.86888 18.597 5.69056C18.285 5.50778 17.9216 5.4164 17.5071 5.4164C17.0746 5.4164 16.6913 5.5167 16.3569 5.71731C16.027 5.91346 15.7685 6.1787 15.5812 6.51305C15.394 6.84294 15.2982 7.21072 15.2937 7.61639V9.2948C15.2937 9.80301 15.3873 10.2421 15.5745 10.6121C15.7662 10.9821 16.0359 11.2674 16.3837 11.468C16.7314 11.6687 17.1437 11.769 17.6207 11.769C17.9373 11.769 18.227 11.7244 18.49 11.6352C18.7531 11.5461 18.9782 11.4123 19.1654 11.234C19.3526 11.0557 19.4953 10.8372 19.5934 10.5787L22.228 10.7525C22.0943 11.3856 21.8201 11.9384 21.4055 12.4109C20.9954 12.879 20.4649 13.2445 19.814 13.5076C19.1676 13.7661 18.4209 13.8954 17.5739 13.8954Z" fill="#2F241F"/>
<path d="M25.9751 10.7392L25.9818 7.32216H26.3964L29.6863 3.4237H32.9562L28.5362 8.58599H27.8608L25.9751 10.7392ZM23.3939 13.6948V0H26.2426V13.6948H23.3939ZM29.8134 13.6948L26.7909 9.22125L28.69 7.20849L33.1501 13.6948H29.8134Z" fill="#2F241F"/>
<path d="M37.8183 13.8954C36.7796 13.8954 35.8814 13.6747 35.1235 13.2334C34.3701 12.7876 33.7884 12.1679 33.3782 11.3744C32.9681 10.5765 32.763 9.65144 32.763 8.59936C32.763 7.53837 32.9681 6.61112 33.3782 5.81761C33.7884 5.01964 34.3701 4.39999 35.1235 3.95865C35.8814 3.51286 36.7796 3.28996 37.8183 3.28996C38.857 3.28996 39.7531 3.51286 40.5065 3.95865C41.2643 4.39999 41.8483 5.01964 42.2585 5.81761C42.6686 6.61112 42.8737 7.53837 42.8737 8.59936C42.8737 9.65144 42.6686 10.5765 42.2585 11.3744C41.8483 12.1679 41.2643 12.7876 40.5065 13.2334C39.7531 13.6747 38.857 13.8954 37.8183 13.8954ZM37.8317 11.6887C38.3043 11.6887 38.6988 11.555 39.0153 11.2875C39.3318 11.0156 39.5703 10.6456 39.7308 10.1775C39.8957 9.70939 39.9782 9.17667 39.9782 8.5793C39.9782 7.98194 39.8957 7.44922 39.7308 6.98113C39.5703 6.51305 39.3318 6.14304 39.0153 5.87111C38.6988 5.59917 38.3043 5.4632 37.8317 5.4632C37.3547 5.4632 36.9535 5.59917 36.6281 5.87111C36.3071 6.14304 36.0641 6.51305 35.8992 6.98113C35.7387 7.44922 35.6585 7.98194 35.6585 8.5793C35.6585 9.17667 35.7387 9.70939 35.8992 10.1775C36.0641 10.6456 36.3071 11.0156 36.6281 11.2875C36.9535 11.555 37.3547 11.6887 37.8317 11.6887Z" fill="#2F241F"/>
<path d="M48.6134 13.8954C47.5747 13.8954 46.6765 13.6747 45.9186 13.2334C45.1652 12.7876 44.5834 12.1679 44.1733 11.3744C43.7632 10.5765 43.5581 9.65144 43.5581 8.59936C43.5581 7.53837 43.7632 6.61112 44.1733 5.81761C44.5834 5.01964 45.1652 4.39999 45.9186 3.95865C46.6765 3.51286 47.5747 3.28996 48.6134 3.28996C49.6521 3.28996 50.5482 3.51286 51.3016 3.95865C52.0594 4.39999 52.6434 5.01964 53.0535 5.81761C53.4637 6.61112 53.6687 7.53837 53.6687 8.59936C53.6687 9.65144 53.4637 10.5765 53.0535 11.3744C52.6434 12.1679 52.0594 12.7876 51.3016 13.2334C50.5482 13.6747 49.6521 13.8954 48.6134 13.8954ZM48.6268 11.6887C49.0993 11.6887 49.4939 11.555 49.8104 11.2875C50.1269 11.0156 50.3654 10.6456 50.5259 10.1775C50.6908 9.70939 50.7733 9.17667 50.7733 8.5793C50.7733 7.98194 50.6908 7.44922 50.5259 6.98113C50.3654 6.51305 50.1269 6.14304 49.8104 5.87111C49.4939 5.59917 49.0993 5.4632 48.6268 5.4632C48.1498 5.4632 47.7486 5.59917 47.4232 5.87111C47.1022 6.14304 46.8592 6.51305 46.6943 6.98113C46.5338 7.44922 46.4536 7.98194 46.4536 8.5793C46.4536 9.17667 46.5338 9.70939 46.6943 10.1775C46.8592 10.6456 47.1022 11.0156 47.4232 11.2875C47.7486 11.555 48.1498 11.6887 48.6268 11.6887Z" fill="#2F241F"/>
<path d="M54.7678 13.6948V3.4237H57.5295V5.21579H57.6365C57.8237 4.5783 58.138 4.09685 58.5793 3.77142C59.0207 3.44153 59.5289 3.27658 60.1039 3.27658C60.2466 3.27658 60.4004 3.2855 60.5653 3.30333C60.7303 3.32116 60.8752 3.34568 61 3.37689V5.90454C60.8662 5.86442 60.6812 5.82875 60.445 5.79755C60.2087 5.76634 59.9925 5.75074 59.7963 5.75074C59.3773 5.75074 59.0028 5.84213 58.6729 6.0249C58.3475 6.20322 58.0889 6.45287 57.8973 6.77384C57.71 7.09481 57.6164 7.46482 57.6164 7.88386V13.6948H54.7678Z" fill="#2F241F"/>
</svg>
