<svg width="38" height="42" viewBox="0 0 38 42" fill="none" xmlns="http://www.w3.org/2000/svg">
<path d="M33.4915 7.5678C32.0746 6.79492 29.8848 8.08306 28.5966 10.4017L26.1492 14.5237C25.2475 16.1983 25.3763 18.2593 26.5356 19.9339L26.6644 20.0627C27.8237 21.6085 29.2407 23.1543 29.7559 23.6695C30.0136 23.9271 30.2712 24.3136 30.4 24.8288C30.7865 26.2458 30.0136 27.7915 28.4678 28.178C27.0509 28.5644 25.5051 27.7915 25.1187 26.2458C24.9898 25.8593 24.9898 25.4729 24.9898 25.2153C25.1187 24.5712 24.861 23.6695 23.9593 22.639C23.0576 21.7373 21.3831 23.5407 20.739 25.3441V25.4729C20.2237 27.2763 19.8373 28.9509 19.9661 29.0797C19.9661 29.2085 20.0949 29.2085 20.0949 29.3373C20.8678 30.8831 20.3526 32.6865 18.8068 33.4593C17.261 34.2322 15.4576 33.717 14.6848 32.1712C13.9119 30.6254 14.4271 28.8221 15.9729 28.0492C16.1017 28.0492 16.1017 27.9204 16.2305 27.9204C16.3593 27.9204 16.617 27.1475 17.0034 26.117C17.261 25.2153 17.3898 24.8288 17.5187 24.4424C17.6475 23.9271 17.9051 22.639 17.7763 22.1237C17.6475 21.4797 17.0034 21.4797 16.3593 21.8661C15.9729 22.1237 15.2 22.7678 14.9424 23.0254C14.2983 23.5407 13.7831 24.3136 13.5254 24.9576C13.3966 25.2153 13.139 25.6017 12.8814 25.8593C11.722 26.761 10.0475 26.6322 9.01695 25.4729C8.11526 24.3136 8.24407 22.639 9.40339 21.6085C9.78984 21.3509 10.1763 21.0932 10.5627 21.0932C11.2068 20.9644 13.5254 19.5475 14.9424 18.517C15.2 18.3881 15.5864 18.0017 15.7153 17.8729C16.1017 17.3576 15.7153 16.9712 15.3288 16.9712C14.1695 17.1 12.8814 17.2288 12.6237 17.6153C12.4949 17.7441 12.3661 18.0017 12.1085 18.1305C11.078 18.9034 9.53221 18.6458 8.75933 17.6153C7.98644 16.5848 8.24407 15.039 9.27458 14.2661C9.66102 13.8797 10.3051 13.7509 10.6915 13.7509C11.5932 13.7509 13.9119 14.2661 15.7153 13.8797L16.2305 13.7509C18.1627 13.3644 20.4814 11.6898 21.3831 10.0153C21.3831 10.0153 22.2848 8.4695 23.3153 6.53729C24.4746 4.60509 24.3458 2.41526 23.1865 1.77119L20.9966 0.483051C19.8373 -0.161017 18.1627 -0.161017 17.0034 0.483051L2.06102 8.98475C0.901695 9.62882 0 11.1746 0 12.4627V28.9509C0 30.239 0.901695 31.7848 2.06102 32.4288L17.0034 40.9305C18.1627 41.5746 19.9661 41.5746 20.9966 40.9305L35.939 32.4288C37.0983 31.7848 38 30.239 38 28.9509V12.4627C38 11.1746 37.0983 9.62882 35.939 8.98475C35.939 8.98475 34.9085 8.34068 33.4915 7.5678Z" fill="#5FCF80"/>
</svg>
